<svg xmlns="http://www.w3.org/2000/svg" width="720" height="400" viewBox="0 0 720 400" font-family="ui-sans-serif,system-ui,Arial">
<rect width="720" height="400" fill="#ffffff"/>
<text x="360" y="28" text-anchor="middle" font-size="16" font-weight="700">Figure 3. 路由结果构成</text><text x="82" y="73.3" text-anchor="end" font-size="12" font-weight="600">A-router</text><rect x="92.0" y="59.814" width="166.0" height="19.0" fill="#10b981"/><text x="175.0" y="73.3" text-anchor="middle" font-size="11" font-weight="700" fill="#fff">8</text><rect x="258.0" y="59.814" width="20.8" height="19.0" fill="#f59e0b"/><text x="268.4" y="73.3" text-anchor="middle" font-size="11" font-weight="700" fill="#fff">1</text><rect x="278.8" y="59.814" width="311.3" height="19.0" fill="#ef4444"/><text x="434.4" y="73.3" text-anchor="middle" font-size="11" font-weight="700" fill="#fff">15</text><text x="82" y="103.89999999999999" text-anchor="end" font-size="12" font-weight="600">B-cc</text><rect x="92.0" y="90.41399999999999" width="477.3" height="19.0" fill="#10b981"/><text x="330.6" y="103.89999999999999" text-anchor="middle" font-size="11" font-weight="700" fill="#fff">23</text><rect x="569.3" y="90.41399999999999" width="20.8" height="19.0" fill="#f59e0b"/><text x="579.6" y="103.89999999999999" text-anchor="middle" font-size="11" font-weight="700" fill="#fff">1</text><text x="82" y="134.5" text-anchor="end" font-size="12" font-weight="600">C-lite</text><rect x="92.0" y="121.01400000000001" width="477.3" height="19.0" fill="#10b981"/><text x="330.6" y="134.5" text-anchor="middle" font-size="11" font-weight="700" fill="#fff">23</text><rect x="569.3" y="121.01400000000001" width="20.8" height="19.0" fill="#f59e0b"/><text x="579.6" y="134.5" text-anchor="middle" font-size="11" font-weight="700" fill="#fff">1</text><text x="82" y="165.1" text-anchor="end" font-size="12" font-weight="600">D-agentic</text><rect x="92.0" y="151.614" width="477.3" height="19.0" fill="#10b981"/><text x="330.6" y="165.1" text-anchor="middle" font-size="11" font-weight="700" fill="#fff">23</text><rect x="569.3" y="151.614" width="20.8" height="19.0" fill="#f59e0b"/><text x="579.6" y="165.1" text-anchor="middle" font-size="11" font-weight="700" fill="#fff">1</text><text x="82" y="195.7" text-anchor="end" font-size="12" font-weight="600">E-digest</text><rect x="92.0" y="182.214" width="477.3" height="19.0" fill="#10b981"/><text x="330.6" y="195.7" text-anchor="middle" font-size="11" font-weight="700" fill="#fff">23</text><rect x="569.3" y="182.214" width="20.8" height="19.0" fill="#ef4444"/><text x="579.6" y="195.7" text-anchor="middle" font-size="11" font-weight="700" fill="#fff">1</text><text x="82" y="226.29999999999998" text-anchor="end" font-size="12" font-weight="600">F-index</text><rect x="92.0" y="212.814" width="456.5" height="19.0" fill="#10b981"/><text x="320.3" y="226.29999999999998" text-anchor="middle" font-size="11" font-weight="700" fill="#fff">22</text><rect x="548.5" y="212.814" width="20.8" height="19.0" fill="#f59e0b"/><text x="558.9" y="226.29999999999998" text-anchor="middle" font-size="11" font-weight="700" fill="#fff">1</text><rect x="569.3" y="212.814" width="20.8" height="19.0" fill="#ef4444"/><text x="579.6" y="226.29999999999998" text-anchor="middle" font-size="11" font-weight="700" fill="#fff">1</text><text x="82" y="256.9" text-anchor="end" font-size="12" font-weight="600">G-native</text><rect x="92.0" y="243.41400000000002" width="311.3" height="19.0" fill="#10b981"/><text x="247.6" y="256.9" text-anchor="middle" font-size="11" font-weight="700" fill="#fff">15</text><rect x="403.3" y="243.41400000000002" width="166.0" height="19.0" fill="#f59e0b"/><text x="486.3" y="256.9" text-anchor="middle" font-size="11" font-weight="700" fill="#fff">8</text><rect x="569.3" y="243.41400000000002" width="20.8" height="19.0" fill="#ef4444"/><text x="579.6" y="256.9" text-anchor="middle" font-size="11" font-weight="700" fill="#fff">1</text><text x="82" y="287.50000000000006" text-anchor="end" font-size="12" font-weight="600">H-bounded</text><rect x="92.0" y="274.01400000000007" width="477.3" height="19.0" fill="#10b981"/><text x="330.6" y="287.50000000000006" text-anchor="middle" font-size="11" font-weight="700" fill="#fff">23</text><rect x="569.3" y="274.01400000000007" width="20.8" height="19.0" fill="#f59e0b"/><text x="579.6" y="287.50000000000006" text-anchor="middle" font-size="11" font-weight="700" fill="#fff">1</text><text x="82" y="318.1" text-anchor="end" font-size="12" font-weight="600">I-meta</text><rect x="92.0" y="304.61400000000003" width="456.5" height="19.0" fill="#10b981"/><text x="320.3" y="318.1" text-anchor="middle" font-size="11" font-weight="700" fill="#fff">22</text><rect x="548.5" y="304.61400000000003" width="20.8" height="19.0" fill="#f59e0b"/><text x="558.9" y="318.1" text-anchor="middle" font-size="11" font-weight="700" fill="#fff">1</text><rect x="569.3" y="304.61400000000003" width="20.8" height="19.0" fill="#ef4444"/><text x="579.6" y="318.1" text-anchor="middle" font-size="11" font-weight="700" fill="#fff">1</text><text x="82" y="348.70000000000005" text-anchor="end" font-size="12" font-weight="600">J-bounded</text><rect x="92.0" y="335.21400000000006" width="477.3" height="19.0" fill="#10b981"/><text x="330.6" y="348.70000000000005" text-anchor="middle" font-size="11" font-weight="700" fill="#fff">23</text><rect x="569.3" y="335.21400000000006" width="20.8" height="19.0" fill="#ef4444"/><text x="579.6" y="348.70000000000005" text-anchor="middle" font-size="11" font-weight="700" fill="#fff">1</text><rect x="596" y="64" width="13" height="13" fill="#10b981"/><text x="614" y="75" font-size="11" fill="#374151">命中</text><rect x="596" y="86" width="13" height="13" fill="#f59e0b"/><text x="614" y="97" font-size="11" fill="#374151">误选 distractor</text><rect x="596" y="108" width="13" height="13" fill="#9ca3af"/><text x="614" y="119" font-size="11" fill="#374151">误选 noise</text><rect x="596" y="130" width="13" height="13" fill="#ef4444"/><text x="614" y="141" font-size="11" fill="#374151">无匹配/无声明</text>
</svg>